# xmcd CD database file
#
# Track frame offsets:
#	150
#	16145
#	37507
#	56085
#	71662
#	95515
#	111340
#	131425
#	154615
#	166412
#	183435
#	203885
#	218855
#	235800
#	253202
#	265670
#	281297
#	299597
#
# Disc length: 4237 seconds
#
# Revision: 0
# Processed by: cddbd v1.5.2PL0 Copyright (c) Steve Scherf et al.
# Submitted via: CDex 1.70beta2
#
DISCID=02108b12
DTITLE=Mari Nakamoto - Just In Time
DYEAR=1988
DGENRE=Jazz
TTITLE0=You Go To My Head
TTITLE1=Just In Time
TTITLE2=Autumn In New York
TTITLE3=I'm Gonna Sit Right Down And Write Myself A Letter
TTITLE4=Angel Eyes
TTITLE5=Baby Won't You Please Come Home?
TTITLE6=I'm Grad There Is You
TTITLE7=We'll Be Togather Again
TTITLE8=I Thought About You
TTITLE9=Lullaby Of Birdland
TTITLE10=Unfogettable
TTITLE11=But Not For Me
TTITLE12=As Time Goes By
TTITLE13=It's All Right With Me
TTITLE14=On The Sunny Side Of The Street
TTITLE15=Shiny Stockings
TTITLE16=Someone To Watch Over Me
TTITLE17=That Old Feeling
EXTD=YEAR: 1988
EXTT0=
EXTT1=
EXTT2=
EXTT3=
EXTT4=
EXTT5=
EXTT6=
EXTT7=
EXTT8=
EXTT9=
EXTT10=
EXTT11=
EXTT12=
EXTT13=
EXTT14=
EXTT15=
EXTT16=
EXTT17=
PLAYORDER=
